<svg xmlns="http://www.w3.org/2000/svg" viewBox="0 0 1200 800">
  <defs>
    <linearGradient id="sky" x1="0" y1="0" x2="0" y2="1">
      <stop offset="0%" stop-color="#84cc16"/>
      <stop offset="55%" stop-color="#0d9488"/>
      <stop offset="100%" stop-color="#134e4a"/>
    </linearGradient>
    <linearGradient id="sea" x1="0" y1="0" x2="0" y2="1">
      <stop offset="0%" stop-color="#115e59" stop-opacity="0.95"/>
      <stop offset="100%" stop-color="#0b3a36"/>
    </linearGradient>
    <linearGradient id="cliff" x1="0" y1="0" x2="0" y2="1">
      <stop offset="0%" stop-color="#a4502c"/>
      <stop offset="100%" stop-color="#5c2a17"/>
    </linearGradient>
    <radialGradient id="sun" cx="50%" cy="50%" r="50%">
      <stop offset="0%" stop-color="#f7fee7" stop-opacity="1"/>
      <stop offset="40%" stop-color="#d9f99d" stop-opacity="0.9"/>
      <stop offset="100%" stop-color="#d9f99d" stop-opacity="0"/>
    </radialGradient>
  </defs>
  <rect width="1200" height="800" fill="url(#sky)"/>
  <circle cx="620" cy="170" r="190" fill="url(#sun)"/>
  <circle cx="620" cy="170" r="80" fill="#ecfccb" opacity="0.95"/>
  <path d="M0 400 Q 300 388 600 400 T 1200 396 L1200 520 L0 520 Z" fill="url(#sea)"/>
  <path d="M0 442 Q 300 430 620 442 T 1200 438" stroke="#5eead4" stroke-width="3" stroke-opacity="0.3" fill="none"/>
  <path d="M0 520 L1200 516 L1200 800 L0 800 Z" fill="url(#cliff)"/>
  <path d="M0 540 L1200 536 L1200 560 L0 566 Z" fill="#3d1c0f" opacity="0.6"/>
  <g fill="#1d2414">
    <path d="M140 800 Q 170 660 255 585" stroke="#1d2414" stroke-width="22" fill="none" stroke-linecap="round"/>
    <path d="M246 590 Q 202 548 172 530 M246 590 Q 264 528 308 520 M246 590 Q 300 574 350 580 M246 590 Q 232 544 230 496" stroke="#1d2414" stroke-width="9" fill="none" stroke-linecap="round"/>
    <path d="M1000 800 Q 985 670 945 600" stroke="#1d2414" stroke-width="20" fill="none" stroke-linecap="round"/>
    <path d="M943 606 Q 908 560 868 552 M943 606 Q 958 540 1002 534 M943 606 Q 1005 580 1055 584 M943 606 Q 937 550 943 500" stroke="#1d2414" stroke-width="9" fill="none" stroke-linecap="round"/>
  </g>
  <path d="M0 700 Q 600 672 1200 696 L1200 752 L0 752 Z" fill="#17130f" opacity="0.95"/>
  <path d="M0 722 Q 600 694 1200 718" stroke="#d9f99d" stroke-width="4" stroke-dasharray="32 26" stroke-opacity="0.4" fill="none"/>
  <ellipse cx="840" cy="736" rx="360" ry="26" fill="#000" opacity="0.45"/>
  <g transform="translate(600 555) scale(2.6)">
    <circle cx="48" cy="84" r="18" fill="#3f6212"/>
    <circle cx="48" cy="84" r="8" fill="#d9f99d" opacity="0.5"/>
    <circle cx="146" cy="84" r="18" fill="#3f6212"/>
    <circle cx="146" cy="84" r="8" fill="#d9f99d" opacity="0.5"/>
    <path d="M40 40 L34 24 Q32 20 36 20 L42 20 Q46 20 46 24 L48 36 L64 40 L64 84 L40 84 Z" fill="#3f6212"/>
    <path d="M52 34 L120 34 Q126 34 126 40 L126 48 Q126 52 120 52 L60 52 L56 44 Z" fill="#a3e635"/>
    <path d="M120 34 L140 30 Q144 30 144 34 L144 84 L128 84 L128 52 Z" fill="#3f6212"/>
    <path d="M64 40 L64 58 L40 58 L40 46 Z" fill="#a3e635"/>
    <rect x="46" y="20" width="10" height="10" rx="2" fill="#d9f99d" opacity="0.7"/>
    <path d="M36 26 L24 26 Q22 26 22 24 L22 18 Q22 16 24 16 L36 16 Q38 16 38 18 L38 24 Z" fill="#3f6212"/>
    <rect x="118" y="42" width="16" height="14" rx="3" fill="#d9f99d" opacity="0.85"/>
    <path d="M72 52 L72 66 Q72 70 68 70 L52 70 Q48 70 48 66 L48 58 Z" fill="#3f6212"/>
  </g>
  <g stroke="#ffffff" stroke-width="3" stroke-linecap="round" opacity="0.45" fill="none">
    <path d="M300 250 Q 314 236 328 250 Q 342 236 356 250"/>
    <path d="M880 230 Q 892 218 904 230"/>
  </g>
</svg>
